<svg xmlns="http://www.w3.org/2000/svg" viewBox="0 0 64 64" fill="none">
  <defs>
    <filter id="glow" x="-30%" y="-30%" width="160%" height="160%">
      <feGaussianBlur stdDeviation="3" result="blur"/>
      <feFlood flood-color="#3b82f6" flood-opacity="0.6" result="color"/>
      <feComposite in="color" in2="blur" operator="in" result="shadow"/>
      <feMerge>
        <feMergeNode in="shadow"/>
        <feMergeNode in="SourceGraphic"/>
      </feMerge>
    </filter>
  </defs>
  <path d="M32 4L8 16v16c0 14.4 10.24 27.84 24 32 13.76-4.16 24-17.6 24-32V16L32 4z" fill="#0f1729" filter="url(#glow)"/>
  <path d="M32 8L12 18v14c0 12.6 8.96 24.36 20 28 11.04-3.64 20-15.4 20-28V18L32 8z" fill="#111827" stroke="#3b82f6" stroke-width="2.5"/>
  <path d="M32 18l-12 6v8c0 7.8 5.12 15.12 12 17.4 6.88-2.28 12-9.6 12-17.4v-8l-12-6z" fill="#1e3a5f" stroke="#60a5fa" stroke-width="1.5"/>
  <path d="M26 33l4 4 8-9" stroke="#60a5fa" stroke-width="3" stroke-linecap="round" stroke-linejoin="round"/>
</svg>
